<?xml version="1.0" encoding="utf-8"?>
<!-- Generator: Adobe Illustrator 25.0.1, SVG Export Plug-In . SVG Version: 6.00 Build 0)  -->
<svg version="1.1" id="katman_1" xmlns="http://www.w3.org/2000/svg" xmlns:xlink="http://www.w3.org/1999/xlink" x="0px" y="0px"
	 viewBox="0 0 393 139" style="enable-background:new 0 0 393 139;" xml:space="preserve">
<style type="text/css">
	.st0{fill-rule:evenodd;clip-rule:evenodd;fill:#E23237;}
	.st1{fill-rule:evenodd;clip-rule:evenodd;fill:#B52E31;}
	.st2{fill-rule:evenodd;clip-rule:evenodd;fill:#FFFFFF;}
	.st3{fill:#B52E31;}
</style>
<g>
	<g>
		<g>
			<path class="st0" d="M0,23.2l64.5-23l66.2,22.6L120,108.1l-55.5,30.7L9.9,108.5L0,23.2L0,23.2z"/>
			<path class="st1" d="M130.7,22.8L64.5,0.2v138.6l55.5-30.7L130.7,22.8L130.7,22.8z"/>
			<path class="st2" d="M64.6,16.4L64.6,16.4l-40.2,89.4l15-0.3l8.1-20.2h17.1h18.8l8.8,20.4l14.3,0.3L64.6,16.4L64.6,16.4z
				 M64.7,45.1l13.6,28.4h-13h-0.7H52.8L64.7,45.1L64.7,45.1z"/>
		</g>
		<g>
			<path class="st3" d="M153.2,103.5V35.6h9.6L184.6,70c5,8,9,15.1,12.2,22.1l0.2-0.1c-0.8-9.1-1-17.3-1-27.9V35.6h8.3v67.9h-8.9
				L173.8,69c-4.7-7.6-9.3-15.3-12.7-22.7l-0.3,0.1c0.5,8.6,0.7,16.7,0.7,28v29H153.2z"/>
			<path class="st3" d="M254.7,71.7h-26.4v24.5h29.4v7.4h-38.2V35.6h36.7v7.4h-27.9v21.5h26.4V71.7z"/>
			<path class="st3" d="M281.1,103.5l-17.2-67.9h9.3l8.1,34.4c2,8.5,3.8,16.9,5,23.5h0.2c1.1-6.8,3.2-14.8,5.5-23.6l9.1-34.3h9.2
				l8.3,34.5c1.9,8.1,3.7,16.1,4.7,23.3h0.2c1.4-7.5,3.3-15,5.4-23.5l9-34.3h9l-19.2,67.9h-9.2l-8.6-35.4
				c-2.1-8.7-3.5-15.3-4.4-22.2h-0.2c-1.2,6.8-2.7,13.4-5.2,22.2l-9.7,35.4H281.1z"/>
			<path class="st3" d="M354.1,92.8c3.9,2.4,9.7,4.4,15.7,4.4c9,0,14.2-4.7,14.2-11.6c0-6.3-3.6-10-12.8-13.5
				c-11.1-3.9-17.9-9.7-17.9-19.2c0-10.6,8.8-18.4,22-18.4c7,0,12,1.6,15,3.3l-2.4,7.2c-2.2-1.2-6.8-3.2-12.9-3.2
				c-9.3,0-12.8,5.5-12.8,10.2c0,6.3,4.1,9.5,13.5,13.1c11.5,4.4,17.3,10,17.3,20c0,10.5-7.8,19.5-23.8,19.5
				c-6.5,0-13.7-1.9-17.3-4.3L354.1,92.8z"/>
		</g>
	</g>
</g>
</svg>
